<svg width="40" height="40" viewBox="0 0 40 40" fill="none" xmlns="http://www.w3.org/2000/svg">
<path d="M26.15 0H13.88C2.67 0 0 2.66984 0 13.8398V26.1201C0 37.3301 2.64998 40 13.85 40H26.12C37.33 40 40 37.3404 40 26.1504V13.8799C40 2.66988 37.35 0 26.15 0ZM32.29 28.54H29.38C28.27 28.54 27.94 27.6499 25.96 25.6699C24.23 23.9999 23.5001 23.79 23.0601 23.79C22.4601 23.79 22.29 23.96 22.29 24.79V27.4199C22.29 28.1199 22.06 28.54 20.21 28.54C18.41 28.42 16.66 27.8702 15.12 26.9502C13.57 26.0102 12.2701 24.74 11.3101 23.21C9.05006 20.38 7.46996 17.08 6.70996 13.54C6.70996 13.09 6.87996 12.71 7.70996 12.71H10.62C11.38 12.71 11.6499 13.0398 11.9399 13.7998C13.3499 17.9798 15.77 21.5898 16.75 21.5898C17.12 21.5898 17.29 21.44 17.29 20.5V16.21C17.17 14.25 16.12 14.0799 16.12 13.3799C16.14 13.1899 16.22 13.0099 16.37 12.8799C16.5 12.7599 16.69 12.7 16.88 12.71H21.46C22.08 12.71 22.29 13.0098 22.29 13.7598V19.5498C22.29 20.1898 22.56 20.4004 22.75 20.4004C23.12 20.4004 23.42 20.19 24.1 19.5C25.58 17.7 26.7899 15.69 27.6899 13.54C27.7799 13.28 27.9501 13.0502 28.1801 12.9102C28.4101 12.7602 28.68 12.69 28.96 12.71H31.88C32.75 12.71 32.94 13.1498 32.75 13.7598C31.69 16.1498 30.38 18.4 28.83 20.5C28.52 20.98 28.4 21.23 28.83 21.79C29.12 22.23 30.15 23.0804 30.83 23.9004C31.83 24.8804 32.66 26.0498 33.29 27.2998C33.54 28.1198 33.12 28.54 32.29 28.54Z" fill="#8CAEF5"/>
</svg>
